<?xml version="1.0" encoding="utf-8"?>
<!-- Generator: Adobe Illustrator 21.0.2, SVG Export Plug-In . SVG Version: 6.00 Build 0)  -->
<svg version="1.1" xmlns="http://www.w3.org/2000/svg" xmlns:xlink="http://www.w3.org/1999/xlink" x="0px" y="0px"
	 viewBox="0 0 1380 389.1" style="enable-background:new 0 0 1380 389.1;" xml:space="preserve">
<style type="text/css">
	.st0{display:none;}
	.st1{display:inline;}
	.st2{fill:#29ABE2;}
	.st3{fill:#92E4E8;}
	.st4{fill:url(#SVGID_1_);}
	.st5{fill:url(#SVGID_2_);}
	.st6{fill:url(#SVGID_3_);}
	.st7{fill:url(#SVGID_4_);}
	.st8{fill:#FFFFFF;}
</style>
<g id="Layer_1" class="st0">
</g>
<g id="backclouds">
</g>
<g id="middleclouds">
	<g>
		<g>
			<radialGradient id="SVGID_1_" cx="1080" cy="168.1445" r="418.6168" gradientUnits="userSpaceOnUse">
				<stop  offset="0" style="stop-color:#62C5E9"/>
				<stop  offset="3.251433e-02" style="stop-color:#71CBEB"/>
				<stop  offset="0.1239" style="stop-color:#97D9F0"/>
				<stop  offset="0.2227" style="stop-color:#B7E4F5"/>
				<stop  offset="0.3287" style="stop-color:#D1EEF9"/>
				<stop  offset="0.4449" style="stop-color:#E6F6FB"/>
				<stop  offset="0.5762" style="stop-color:#F4FBFD"/>
				<stop  offset="0.7354" style="stop-color:#FCFEFF"/>
				<stop  offset="1" style="stop-color:#FFFFFF"/>
			</radialGradient>
			<path class="st4" d="M1297.2,136.5c-6.9,0-13.5,0.9-19.9,2.4c-4.2-25.1-26.1-44.2-52.4-44.2c-6.2,0-12.1,1.1-17.6,3
				c-15.6-41-55.3-70.1-101.8-70.1c-46.3,0-85.8,28.9-101.6,69.6c-40.2,9.6-70,45.8-70,88.9c0,50.5,41,91.5,91.5,91.5
				c8.5,0,16.7-1.2,24.4-3.3c0,1.1-0.1,2.2-0.1,3.3c0,61.6,49.9,111.5,111.5,111.5c54.7,0,100.2-39.4,109.7-91.4
				c8.2,2.7,17,4.3,26.2,4.3c45.7,0,82.8-37.1,82.8-82.8S1342.9,136.5,1297.2,136.5z"/>
		</g>
		<g>
			
				<radialGradient id="SVGID_2_" cx="203.6554" cy="186.0723" r="185.3704" gradientTransform="matrix(0.7071 -0.7071 2.1213 2.1213 -335.0696 -64.6405)" gradientUnits="userSpaceOnUse">
				<stop  offset="0" style="stop-color:#62C5E9"/>
				<stop  offset="0.1082" style="stop-color:#7DCFED"/>
				<stop  offset="0.3171" style="stop-color:#ABE0F3"/>
				<stop  offset="0.5171" style="stop-color:#D0EDF8"/>
				<stop  offset="0.7028" style="stop-color:#EAF7FC"/>
				<stop  offset="0.8693" style="stop-color:#F9FDFE"/>
				<stop  offset="1" style="stop-color:#FFFFFF"/>
			</radialGradient>
			<path class="st5" d="M331.7,120.4c-6.3,0-12.4,0.8-18.2,2.2c-3.9-22.9-23.8-40.4-47.8-40.4c-5.6,0-11,1-16.1,2.7
				c-14.3-37.4-50.5-64-92.9-64c-42.3,0-78.4,26.4-92.8,63.6C27.3,93.4,0,126.4,0,165.8c0,46.1,37.4,83.5,83.5,83.5
				c7.7,0,15.2-1.1,22.3-3c0,1,0,2,0,3c0,56.2,45.6,101.8,101.8,101.8c50,0,91.5-36,100.2-83.4c7.5,2.5,15.6,3.9,23.9,3.9
				c41.7,0,75.6-33.8,75.6-75.6S373.5,120.4,331.7,120.4z"/>
		</g>
		<g>
			<radialGradient id="SVGID_3_" cx="827.2675" cy="219.1445" r="188.6582" gradientUnits="userSpaceOnUse">
				<stop  offset="0" style="stop-color:#62C5E9"/>
				<stop  offset="0.1788" style="stop-color:#7FD0ED"/>
				<stop  offset="1" style="stop-color:#FFFFFF"/>
			</radialGradient>
			<path class="st6" d="M969.5,115.9C954.8,78,918.1,51.1,875,51.1c-43.2,0-80,27-94.6,65.1c-5.1-1.8-10.6-2.8-16.3-2.8
				c-24.5,0-44.8,17.8-48.7,41.1c-5.9-1.5-12.1-2.3-18.5-2.3c-42.5,0-76.9,34.4-76.9,76.9c0,42.5,34.4,76.9,76.9,76.9
				c8.5,0,16.7-1.4,24.4-4c8.8,48.3,51.1,84.9,101.9,84.9c57.2,0,103.6-46.4,103.6-103.6c0-1,0-2.1,0-3.1c7.2,2,14.8,3.1,22.7,3.1
				c47,0,85-38.1,85-85C1034.5,158.4,1006.8,124.8,969.5,115.9z"/>
		</g>
		<g>
			<radialGradient id="SVGID_4_" cx="507" cy="180.752" r="202.9782" gradientUnits="userSpaceOnUse">
				<stop  offset="0" style="stop-color:#62C5E9"/>
				<stop  offset="8.697146e-02" style="stop-color:#74CCEB"/>
				<stop  offset="0.4012" style="stop-color:#AFE2F4"/>
				<stop  offset="0.669" style="stop-color:#DAF2FA"/>
				<stop  offset="0.8771" style="stop-color:#F5FBFE"/>
				<stop  offset="1" style="stop-color:#FFFFFF"/>
			</radialGradient>
			<path class="st7" d="M730,203c0-50.5-41-91.5-91.5-91.5c-8.5,0-16.7,1.2-24.4,3.3c0-1.1,0.1-2.2,0.1-3.3
				C614.1,49.9,564.2,0,502.6,0C447.9,0,402.4,39.4,393,91.4c-8.2-2.7-17-4.3-26.2-4.3c-45.7,0-82.8,37.1-82.8,82.8
				c0,45.7,37.1,82.8,82.8,82.8c6.9,0,13.5-0.9,19.9-2.4c4.2,25.1,26.1,44.2,52.4,44.2c6.2,0,12.1-1.1,17.6-3
				c15.6,41,55.3,70.1,101.8,70.1c46.3,0,85.8-28.9,101.6-69.6C700.1,282.2,730,246.1,730,203z"/>
		</g>
	</g>
</g>
<g id="frontclouds">
</g>
</svg>
