<?xml version="1.0" encoding="utf-8"?>
<!-- Generator: Adobe Illustrator 21.0.2, SVG Export Plug-In . SVG Version: 6.00 Build 0)  -->
<svg version="1.1" xmlns="http://www.w3.org/2000/svg" xmlns:xlink="http://www.w3.org/1999/xlink" x="0px" y="0px"
	 viewBox="0 0 1652 457" style="enable-background:new 0 0 1652 457;" xml:space="preserve">
<style type="text/css">
	.st0{display:none;}
	.st1{display:inline;}
	.st2{fill:#29ABE2;}
	.st3{fill:#92E4E8;}
	.st4{fill:url(#SVGID_1_);}
	.st5{fill:url(#SVGID_2_);}
	.st6{fill:url(#SVGID_3_);}
	.st7{fill:url(#SVGID_4_);}
	.st8{fill:#FFFFFF;}
</style>
<g id="Layer_1" class="st0">
	<g class="st1">
		<rect x="178.5" y="-998.5" class="st2" width="1307" height="1052"/>
		<path d="M1485-998V53H179V-998H1485 M1486-999H178V54h1308V-999L1486-999z"/>
	</g>
</g>
<g id="backclouds">
</g>
<g id="middleclouds">
</g>
<g id="frontclouds">
	<g>
		<g>
			<g>
				<g>
					<circle class="st8" cx="252.8" cy="289.1" r="128.9"/>
				</g>
				<g>
					<circle class="st8" cx="95.7" cy="221.6" r="95.7"/>
				</g>
				<g>
					<circle class="st8" cx="317.3" cy="125.9" r="125.9"/>
				</g>
				<g>
					<circle class="st8" cx="410" cy="183.3" r="105.8"/>
				</g>
				<g>
					<circle class="st8" cx="179.3" cy="139" r="61.4"/>
				</g>
			</g>
			<g>
				<g>
					<circle class="st8" cx="1355.7" cy="281.8" r="117.8"/>
				</g>
				<g>
					<circle class="st8" cx="1212.2" cy="220.1" r="87.4"/>
				</g>
				<g>
					<circle class="st8" cx="1414.6" cy="132.8" r="115"/>
				</g>
				<g>
					<circle class="st8" cx="1499.2" cy="185.2" r="96.6"/>
				</g>
				<g>
					<circle class="st8" cx="1288.5" cy="144.7" r="56.1"/>
				</g>
			</g>
			<g>
				<g>
					<circle class="st8" cx="643.9" cy="295.9" r="119.8"/>
				</g>
				<g>
					<circle class="st8" cx="789.9" cy="233.2" r="88.9"/>
				</g>
				<g>
					<circle class="st8" cx="583.9" cy="144.2" r="117"/>
				</g>
				<g>
					<circle class="st8" cx="497.8" cy="197.6" r="98.3"/>
				</g>
				<g>
					<circle class="st8" cx="712.2" cy="156.4" r="57.1"/>
				</g>
			</g>
			<g>
				<g>
					<circle class="st8" cx="1019.6" cy="144" r="128.9"/>
				</g>
				<g>
					<circle class="st8" cx="1176.7" cy="211.5" r="95.7"/>
				</g>
				<g>
					<circle class="st8" cx="955.1" cy="307.2" r="125.9"/>
				</g>
				<g>
					<circle class="st8" cx="862.4" cy="249.7" r="105.8"/>
				</g>
				<g>
					<circle class="st8" cx="1093.1" cy="294.1" r="61.4"/>
				</g>
			</g>
		</g>
		<ellipse class="st8" cx="846.5" cy="322.5" rx="805.5" ry="134.5"/>
	</g>
</g>
</svg>
