<?xml version="1.0" encoding="utf-8"?>
<!-- Generator: Adobe Illustrator 21.0.2, SVG Export Plug-In . SVG Version: 6.00 Build 0)  -->
<svg version="1.1" xmlns="http://www.w3.org/2000/svg" xmlns:xlink="http://www.w3.org/1999/xlink" x="0px" y="0px"
	 viewBox="0 0 1482.5 628.5" style="enable-background:new 0 0 1482.5 628.5;" xml:space="preserve">
<style type="text/css">
	.st0{display:none;}
	.st1{display:inline;}
	.st2{fill:#29ABE2;}
	.st3{fill:#92E4E8;}
	.st4{fill:url(#SVGID_1_);}
	.st5{fill:url(#SVGID_2_);}
	.st6{fill:url(#SVGID_3_);}
	.st7{fill:url(#SVGID_4_);}
	.st8{fill:#FFFFFF;}
</style>
<g id="Layer_1" class="st0">
	<g class="st1">
		<rect x="-1249.5" y="0" class="st2" width="1307" height="1052"/>
		<path d="M57,0.5v1051h-1306V0.5H57 M58-0.5h-1308v1053H58V-0.5L58-0.5z"/>
	</g>
</g>
<g id="backclouds">
	<g>
		<g>
			<path class="st3" d="M332.1,357.8c-3.9,0-7.7,0.5-11.3,1.4C318.4,344.9,306,334,291,334c-3.5,0-6.9,0.6-10,1.7
				c-8.9-23.2-31.4-39.7-57.7-39.7c-26.3,0-48.7,16.4-57.6,39.5c-22.8,5.5-39.7,26-39.7,50.4c0,28.7,23.2,51.9,51.9,51.9
				c4.8,0,9.5-0.7,13.9-1.9c0,0.6,0,1.3,0,1.9c0,34.9,28.3,63.2,63.2,63.2c31,0,56.8-22.4,62.2-51.8c4.7,1.6,9.7,2.4,14.9,2.4
				c25.9,0,46.9-21,46.9-46.9S358,357.8,332.1,357.8z"/>
		</g>
		<g>
			<path class="st3" d="M1482.5,363.3c0-32.6-26.4-59-59-59c-5.5,0-10.8,0.8-15.8,2.2c0-0.7,0.1-1.4,0.1-2.2
				c0-39.7-32.2-71.9-71.9-71.9c-35.3,0-64.6,25.4-70.7,58.9c-5.3-1.8-11-2.8-16.9-2.8c-29.5,0-53.3,23.9-53.3,53.3
				c0,29.5,23.9,53.3,53.3,53.3c4.4,0,8.7-0.5,12.8-1.6c2.7,16.2,16.8,28.5,33.8,28.5c4,0,7.8-0.7,11.3-1.9
				c10.1,26.4,35.6,45.2,65.6,45.2c29.8,0,55.3-18.6,65.5-44.9C1463.2,414.4,1482.5,391.1,1482.5,363.3z"/>
		</g>
		<g>
			<path class="st3" d="M618.4,457.5c-5.7,0-11.2,0.9-16.4,2.7c-5.9-32.4-34.3-57-68.3-57c-38.4,0-69.5,31.1-69.5,69.5
				c0,0.7,0,1.4,0.1,2.1c-4.9-1.3-10-2.1-15.3-2.1c-31.5,0-57,25.5-57,57c0,26.9,18.6,49.4,43.7,55.4c9.8,25.4,34.5,43.4,63.3,43.4
				c29,0,53.7-18.1,63.4-43.7c3.4,1.2,7.1,1.9,11,1.9c16.4,0,30-11.9,32.7-27.6c4,1,8.1,1.5,12.4,1.5c28.5,0,51.6-23.1,51.6-51.6
				S646.9,457.5,618.4,457.5z"/>
		</g>
		<g>
			<path class="st3" d="M1055.1,462.4c-5.2,0-10.2,0.9-14.9,2.4c-5.4-29.5-31.2-51.8-62.2-51.8c-34.9,0-63.2,28.3-63.2,63.2
				c0,0.6,0,1.3,0,1.9c-4.4-1.2-9.1-1.9-13.9-1.9c-28.7,0-51.9,23.2-51.9,51.9c0,24.5,16.9,45,39.7,50.4
				c8.9,23.1,31.4,39.5,57.6,39.5c26.4,0,48.8-16.5,57.7-39.7c3.1,1.1,6.5,1.7,10,1.7c14.9,0,27.3-10.9,29.7-25.1
				c3.6,0.9,7.4,1.4,11.3,1.4c25.9,0,46.9-21,46.9-46.9S1081,462.4,1055.1,462.4z"/>
		</g>
		<g>
			<path class="st3" d="M880.5,336.3c0-32.6-26.4-59-59-59c-5.5,0-10.8,0.8-15.8,2.2c0-0.7,0.1-1.4,0.1-2.2
				c0-39.7-32.2-71.9-71.9-71.9c-35.3,0-64.6,25.4-70.7,58.9c-5.3-1.8-11-2.8-16.9-2.8c-29.5,0-53.3,23.9-53.3,53.3
				c0,29.5,23.9,53.3,53.3,53.3c4.4,0,8.7-0.5,12.8-1.6c2.7,16.2,16.8,28.5,33.8,28.5c4,0,7.8-0.7,11.3-1.9
				c10.1,26.4,35.6,45.2,65.6,45.2c29.8,0,55.3-18.6,65.5-44.9C861.2,387.4,880.5,364.1,880.5,336.3z"/>
		</g>
		<g>
			<path class="st3" d="M1145.1,61.8c-3.9,0-7.7,0.5-11.3,1.4C1131.4,48.9,1119,38,1104,38c-3.5,0-6.9,0.6-10,1.7
				c-8.9-23.2-31.4-39.7-57.7-39.7c-26.3,0-48.7,16.4-57.6,39.5C955.9,45,939,65.5,939,89.9c0,28.7,23.2,51.9,51.9,51.9
				c4.8,0,9.5-0.7,13.9-1.9c0,0.6,0,1.3,0,1.9c0,34.9,28.3,63.2,63.2,63.2c31,0,56.8-22.4,62.2-51.8c4.7,1.6,9.7,2.4,14.9,2.4
				c25.9,0,46.9-21,46.9-46.9S1171,61.8,1145.1,61.8z"/>
		</g>
		<g>
			<path class="st3" d="M229,113.7c0-25.9-21-47-47-47c-4.4,0-8.6,0.6-12.6,1.7c0-0.6,0-1.1,0-1.7c0-31.6-25.6-57.2-57.2-57.2
				C84.2,9.5,60.8,29.7,56,56.4c-4.2-1.4-8.8-2.2-13.5-2.2C19,54.2,0,73.3,0,96.7c0,23.5,19,42.5,42.5,42.5c3.5,0,7-0.4,10.2-1.2
				c2.2,12.9,13.4,22.7,26.9,22.7c3.2,0,6.2-0.5,9-1.5c8,21,28.4,36,52.2,36c23.8,0,44.1-14.8,52.1-35.7
				C213.7,154.4,229,135.9,229,113.7z"/>
		</g>
	</g>
</g>
<g id="middleclouds">
</g>
<g id="frontclouds">
</g>
</svg>
